<?xml version="1.0" encoding="utf-8"?>
<svg xmlns="http://www.w3.org/2000/svg" width="230" height="230" viewBox="0 0 230 230" fill="none">
<g clip-path="url(#clip0_1316_1676)">
<path d="M115 230C178.513 230 230 178.513 230 115C230 51.4873 178.513 0 115 0C51.4873 0 0 51.4873 0 115C0 178.513 51.4873 230 115 230Z" fill="#00AFD1"/>
<path d="M179.032 68.3119C171.37 72.824 162.994 77.6928 153.639 78.1225C149.947 78.2928 146.092 77.709 142.593 76.6225C140.223 75.8847 137.605 74.6847 136.433 72.5159C133.481 67.0551 140.209 60.7917 144.783 58.331C150.136 55.4445 156.376 54.1554 162.412 53.1176C170.259 51.7676 177.807 52.8135 185.566 54.1878C186.588 54.3702 189.078 52.1933 188.479 51.2365C182.566 41.8313 172.696 35.3206 161.213 32.872C155.375 31.6274 149.317 31.449 143.382 32.1423C139.214 32.6287 135.535 33.6747 132.331 36.2652C125.841 41.5191 123.982 49.7487 123.281 57.3256C122.329 67.6268 123.224 78.0252 124.048 88.3061C124.458 93.406 124.418 98.7248 125.286 103.772C125.925 107.498 128.317 110.449 131.397 112.821C134.085 114.888 137.372 116.554 139.456 119.206C141.857 122.258 141.262 126.859 138.68 129.705C135.631 133.066 129.247 133.281 124.903 133.378C119.386 133.5 113.87 133.159 108.349 133.216C105 133.249 101.294 133.184 98.3776 131.477C96.1305 130.163 94.4518 127.541 94.9232 125.031C95.4387 122.295 99.6554 124.885 100.753 125.919C102.696 127.743 104.009 130.224 104.445 132.742C104.952 135.689 104.925 138.863 105.044 141.847C105.159 144.689 105.145 147.575 104.458 150.36C103.916 152.566 102.956 154.795 100.81 156.056C97.3819 158.067 92.7863 158.217 88.8604 158.051C85.7585 157.917 82.683 157.491 79.6384 156.952C78.7175 156.79 75.9681 159.044 76.7259 159.903C83.9476 168.056 95.5974 172.791 106.56 174.911C117.293 176.991 129.322 176.719 138.443 170.501C138.839 170.233 140.452 168.81 139.875 168.19C132.697 160.475 120.206 168.474 117.002 175.633C111.719 187.438 120.065 200.415 114.729 212.119C115.584 211.401 116.434 210.688 117.289 209.97C96.7121 212.05 76.6378 204.238 61.4807 191.764C46.5527 179.476 34.2596 163.686 28.2893 145.986C22.7817 129.653 21.2836 111.799 23.9096 94.8736C26.4167 78.7225 33.1934 63.2849 46.9273 52.4932C61.6349 40.9353 82.1278 35.349 100.929 40.8664C102.039 41.1907 104.749 38.1543 103.634 37.8259C86.4194 32.7747 67.7683 37.0273 53.1223 46.2096C37.8947 55.7567 27.5799 69.8646 22.9535 86.2021C18.0407 103.545 18.3271 122.376 22.5041 139.82C27.0115 158.643 37.6303 175.41 52.197 189.181C68.7288 204.813 90.9269 215.411 115.161 212.962C116.134 212.865 117.372 211.576 117.721 210.813C122.21 200.97 117.632 190.734 118.509 180.571C118.901 175.998 120.391 171.064 125.334 169.13C129.251 167.598 133.887 167.967 136.751 171.048C137.226 170.278 137.707 169.507 138.183 168.737C129.754 174.486 117.174 173.63 107.564 171.514C97.2937 169.252 86.6353 164.703 79.8366 157.029C78.8673 158.014 77.8979 158.999 76.9242 159.98C85.992 161.582 97.1395 162.539 103.868 155.468C108.402 150.705 108.609 144.267 108.287 138.259C108.102 134.732 108.318 130.735 106.873 127.431C105.181 123.568 100.907 119.023 96.0424 121.678C91.2882 124.273 89.8738 130.147 94.3196 133.703C99.1355 137.554 107.216 136.143 113.09 136.293C123.224 136.553 135.786 137.375 141.897 128.238C144.074 124.982 145.303 120.633 143.131 117.126C141.262 114.114 137.658 112.322 134.825 110.185C131.098 107.376 128.74 104.092 128.405 99.5843C127.982 93.8357 127.52 88.0953 127.075 82.3468C126.246 71.5794 125.246 60.3904 127.317 49.6919C128.053 45.8893 129.176 41.6083 131.988 38.6043C135.001 35.3814 140.258 35.0733 144.545 34.8422C157.486 34.1409 170.651 38.1178 179.627 46.9231C181.843 49.1001 183.733 51.5122 185.355 54.0905C186.324 53.1054 187.293 52.1203 188.267 51.1392C180.508 49.7649 172.925 48.7312 165.069 50.0203C157.975 51.1838 150.789 52.8419 144.629 56.4053C138.949 59.6931 132.278 65.9444 132.525 72.6415C132.759 79.0103 142.179 80.6765 147.524 81.0981C158.856 81.9941 169.277 76.0226 178.419 70.6389C179.014 70.2902 180.442 69.2443 180.349 68.4943C180.266 67.7322 179.675 67.9349 179.032 68.3119Z" fill="black"/>
<path d="M151.017 156.588C141.196 156.718 131.375 156.848 121.554 156.973C116.786 157.034 112.023 157.099 107.256 157.16C104.264 157.2 101.338 157.383 98.3907 156.852C95.8087 156.386 93.2575 155.733 90.7725 154.946C88.446 154.213 85.8464 153.406 83.9253 151.938C83.4935 151.606 83.119 150.71 82.7974 150.503C82.2422 151.083 81.687 151.659 81.1318 152.238C81.2332 152.218 81.3345 152.198 81.4359 152.178C81.6121 152.218 82.0571 152.109 82.2554 152.096C83.0529 152.044 83.8592 152.072 84.6567 152.072C88.1156 152.08 91.6008 151.999 94.8878 150.901C96.778 150.272 98.4744 149.425 100.479 149.096C102.669 148.736 104.916 148.801 107.106 149.141C111.635 149.842 115.812 151.728 119.395 154.346C119.853 154.679 120.765 154.042 121.078 153.791C125.449 150.305 131.252 148.622 137.015 148.861C142.73 149.096 147.321 152.007 152.802 153.041C154.512 153.361 156.217 153.442 157.953 153.536C158.345 153.556 158.979 153.503 159.341 153.682C159.517 153.771 159.843 154.168 159.935 154.196C159.971 154.282 159.984 154.367 159.98 154.456C159.966 154.752 160.107 154.598 160.403 153.994C160.204 154.018 159.627 154.468 159.464 154.553C158.574 155.019 157.596 155.384 156.635 155.696C154.952 156.244 152.996 156.819 151.189 156.633C149.947 156.503 147.528 159.572 148.484 159.673C151.965 160.034 156.142 158.425 159.045 156.791C160.464 155.992 165.108 152.713 162.707 150.913C161.993 150.378 160.724 150.499 159.883 150.463C157.807 150.373 155.78 150.122 153.776 149.611C150.903 148.878 148.317 147.499 145.475 146.709C142.774 145.959 139.936 145.691 137.121 145.837C131.084 146.157 125.383 148.395 120.831 152.032C121.391 151.845 121.955 151.663 122.514 151.476C116.161 146.834 107.295 144.179 99.4129 146.932C97.4125 147.629 95.6104 148.432 93.469 148.74C91.3585 149.048 89.2303 149.036 87.0977 149.032C84.4012 149.032 81.9822 149.052 80.2286 151.229C76.9945 155.23 86.8951 157.667 89.5123 158.421C92.1472 159.183 94.8834 159.888 97.6372 160.188C101.999 160.662 106.657 160.172 111.045 160.111C123.466 159.949 135.887 159.787 148.308 159.621C149.215 159.608 150.083 158.83 150.617 158.218C150.766 158.056 151.846 156.576 151.017 156.588Z" fill="black"/>
<path d="M142.474 81.8899C141.39 84.1074 140.306 86.3249 139.222 88.5424C138.874 89.2559 139.275 89.5397 140.015 89.2722C140.897 88.9519 141.831 88.0357 142.218 87.2452C143.302 85.0276 144.386 82.8101 145.47 80.5926C145.818 79.8791 145.417 79.5953 144.677 79.8629C143.796 80.1831 142.857 81.0993 142.474 81.8899Z" fill="black"/>
<path d="M153.762 83.0992C153.762 85.8722 153.762 88.6451 153.762 91.418C153.762 92.2004 155.357 91.1869 155.542 91.0532C156.194 90.5748 157.067 89.764 157.067 88.9289C157.067 86.156 157.067 83.383 157.067 80.6101C157.067 79.8277 155.472 80.8412 155.287 80.975C154.639 81.4533 153.762 82.2641 153.762 83.0992Z" fill="black"/>
<path d="M165.258 79.0646C167.514 82.2997 169.77 85.5348 172.03 88.7739C172.519 89.4752 175.855 86.9212 175.145 85.9077C172.889 82.6727 170.634 79.4376 168.373 76.1984C167.889 75.4971 164.553 78.0471 165.258 79.0646Z" fill="black"/>
<path d="M175.194 73.9706C177.701 77.303 181.297 79.6138 185.522 80.7124C186.659 81.0083 189.32 77.9557 188.228 77.6719C184.134 76.6098 180.724 74.3152 178.31 71.1044C177.772 70.3909 174.463 72.9977 175.194 73.9706Z" fill="black"/>
<path d="M50.5578 75.469C66.182 84.927 87.1419 83.6581 101.872 73.3366C103.326 72.315 104.017 69.8989 101.62 71.5813C87.9879 81.1365 67.8343 81.177 53.6774 72.6029C52.5979 71.9502 49.7779 74.9947 50.5578 75.469Z" fill="black"/>
<path d="M58.2909 80.4973C57.9517 82.35 57.1365 83.7081 55.2287 84.4621C54.3431 84.8108 53.3913 85.6662 53.0256 86.4891C52.7128 87.1905 53.0212 87.5351 53.8187 87.2189C57.6168 85.7189 60.8509 82.3419 61.5471 78.5433C61.7057 77.6758 60.657 78.1055 60.2208 78.3528C59.4894 78.7663 58.4408 79.6582 58.2909 80.4973Z" fill="black"/>
<path d="M66.2787 82.5007C66.0364 84.9412 65.7985 87.3817 65.5561 89.8222C65.4724 90.6694 66.3933 90.2884 66.8824 90.0127C67.5609 89.6276 68.7329 88.6789 68.8123 87.8682C69.0546 85.4277 69.2925 82.9872 69.5349 80.5467C69.6186 79.6994 68.6977 80.0804 68.2086 80.3561C67.5301 80.7372 66.358 81.6858 66.2787 82.5007Z" fill="black"/>
<path d="M77.268 83.7971C77.7483 86.124 78.233 88.4551 78.7132 90.7821C78.9071 91.7104 82.247 89.4159 82.0178 88.2929C81.5376 85.9659 81.0529 83.6349 80.5726 81.3079C80.3788 80.3796 77.0345 82.6741 77.268 83.7971Z" fill="black"/>
<path d="M89.3978 80.4382C90.3627 82.4327 91.3277 84.4313 92.2926 86.4259C92.7993 87.4718 96.0466 84.8732 95.5972 83.9367C94.6323 81.9422 93.6673 79.9436 92.7024 77.949C92.1957 76.9031 88.944 79.5017 89.3978 80.4382Z" fill="black"/>
</g>
<defs>
<clipPath id="clip0_1316_1676">
<rect width="230" height="230" fill="white"/>
</clipPath>
</defs>
</svg>