<?xml version="1.0" encoding="utf-8"?>
<svg xmlns="http://www.w3.org/2000/svg" width="230" height="230" viewBox="0 0 230 230" fill="none">
<g clip-path="url(#clip0_1316_1858)">
<path d="M115 230C178.513 230 230 178.513 230 115C230 51.4873 178.513 0 115 0C51.4873 0 0 51.4873 0 115C0 178.513 51.4873 230 115 230Z" fill="#15D676"/>
<path d="M146.729 118.03C129.655 119.332 112.585 120.633 95.5117 121.934C95.1989 122.725 94.8861 123.52 94.5776 124.31C107.633 115.339 117.23 101.717 119.97 86.8675C122.684 72.1475 118.023 57.2816 106.465 46.6804C95.4765 36.5981 79.4866 31.2428 64.1533 34.7171C49.4809 38.0414 37.8046 48.2655 30.1688 59.9085C21.6562 72.8853 17.7039 87.7472 16.9504 102.8C16.0824 120.171 19.5985 137.749 27.7499 153.47C35.2447 167.927 46.8064 180.502 61.1659 189.575C75.0761 198.368 92.3437 204.51 109.409 204.117C117.855 203.922 126.355 201.855 133.074 196.986C139 192.689 143.675 186.214 144.631 179.242C145.508 172.865 143.094 166.471 137.053 162.949C131.994 160.001 125.35 159.15 119.798 161.416C116.873 162.608 114.511 164.615 112.656 166.986C113.599 166.415 114.542 165.847 115.485 165.276C111.969 160.431 107.919 155.96 101.83 153.827C94.6217 151.301 85.3468 151.816 79.3456 156.507C73.86 160.796 69.6213 167.907 70.4276 174.689C70.4937 175.244 70.5422 176.238 70.8991 176.724C71.4146 177.429 73.8644 178.24 74.6928 178.637C77.191 179.837 79.7334 180.956 82.3242 181.97C86.9771 183.794 91.7797 185.282 96.697 186.377C115.035 190.455 134.881 188.874 153.258 185.691C167.42 183.239 181.118 177.908 192.733 170.043C207.604 159.969 218.443 145.683 222.523 129.029C222.739 128.145 221.593 128.628 221.197 128.838C220.421 129.248 219.469 130.152 219.267 130.983C215.949 144.527 208.062 156.564 196.443 165.442C186.146 173.311 173.654 178.678 160.696 181.629C153.404 183.291 145.869 184.11 138.41 184.84C129.646 185.7 120.799 186.056 112.008 185.278C102.98 184.479 94.1326 182.428 85.761 179.217C83.3156 178.281 80.9142 177.243 78.5569 176.128C77.5479 175.65 76.5037 175.192 75.5343 174.644C74.2742 173.931 73.8864 173.546 73.7278 172.2C73.3313 168.855 74.3579 165.381 76.0851 162.446C77.9181 159.332 80.7248 156.689 84.611 155.976C88.9246 155.181 93.6612 155.262 97.8778 156.47C104.399 158.339 108.704 163.103 112.361 168.142C112.925 168.916 114.956 166.727 115.19 166.431C118.503 162.19 126.081 162.685 130.739 164.339C136.929 166.536 140.957 171.502 141.459 177.596C142.01 184.252 138.502 191.148 132.814 195.234C126.161 200.014 117.04 201.32 108.818 201.068C77.6228 200.12 48.8817 180.616 33.9669 156.138C25.5336 142.298 21.0525 126.54 20.2506 110.725C19.5104 96.1309 21.643 81.1433 28.0451 67.6962C33.5836 56.0613 42.4179 45.075 55.3543 39.813C68.8414 34.3279 84.1307 36.5008 96.1374 44.0534C108.197 51.6384 116.199 63.7639 117.313 77.2109C118.463 91.0999 112.726 105.269 102.681 115.59C100.16 118.176 97.3447 120.487 94.3221 122.567C93.8771 122.871 91.8326 125.06 93.388 124.942C110.462 123.641 127.531 122.34 144.605 121.039C145.684 120.945 148.28 117.913 146.729 118.03Z" fill="black"/>
<path d="M36.1662 82.4588C41.7885 92.0789 53.3678 98.468 65.3084 98.0666C77.1565 97.6653 88.2423 91.0613 94.2082 81.7412C95.6446 79.4994 92.3091 81.2912 91.6658 82.2966C86.0789 91.0208 75.0195 95.8937 64.1055 94.9207C53.6674 93.9924 44.225 88.0614 39.2814 79.5926C38.898 78.9318 35.5229 81.3602 36.1662 82.4588Z" fill="black"/>
<path d="M40.5546 90.321C39.0697 91.8413 37.5849 93.3574 36.1 94.8777C35.7916 95.1898 34.95 96.2601 35.7035 96.5155C36.4349 96.7628 37.6422 95.4939 38.0123 95.1128C39.4971 93.5926 40.982 92.0764 42.4669 90.5561C42.7753 90.244 43.6169 89.1737 42.8634 88.9183C42.132 88.671 40.9247 89.944 40.5546 90.321Z" fill="black"/>
<path d="M50.4549 96.1509C49.0978 98.3603 47.5777 100.481 46.2206 102.69C45.7844 103.403 46.3308 103.667 47.0137 103.42C47.961 103.075 48.7321 102.183 49.2168 101.393C50.5739 99.1832 52.094 97.063 53.4511 94.8536C53.8873 94.1401 53.3409 93.8766 52.658 94.1239C51.7062 94.4685 50.9396 95.3644 50.4549 96.1509Z" fill="black"/>
<path d="M61.5187 98.3187C61.0516 101.351 60.3202 104.347 59.8576 107.379C59.7254 108.243 60.73 107.825 61.1838 107.57C61.8976 107.169 62.9859 106.252 63.1137 105.425C63.5808 102.393 64.3122 99.3971 64.7748 96.3647C64.907 95.5012 63.9024 95.9188 63.4486 96.1742C62.7348 96.5715 61.6465 97.4877 61.5187 98.3187Z" fill="black"/>
<path d="M72.7499 97.2498C74.0277 99.8646 74.7194 102.682 75.9928 105.297C76.5039 106.343 79.7512 103.74 79.2974 102.808C78.0196 100.193 77.3279 97.3755 76.0545 94.7607C75.5434 93.7107 72.2961 96.3174 72.7499 97.2498Z" fill="black"/>
<path d="M149.469 84.0486C154.202 94.1431 164.842 101.562 176.845 102.478C188.944 103.402 200.92 97.7714 208.075 88.9094C209.864 86.6959 207.269 87.308 206.167 88.6783C199.545 96.8836 187.873 100.856 176.972 99.1416C166.371 97.4754 157.021 90.6364 152.77 81.5595C152.281 80.5176 149.024 83.1041 149.469 84.0486Z" fill="black"/>
<path d="M146.46 98.0372C149.751 96.3386 152.206 93.9103 154.959 91.5995C155.303 91.3117 156.475 90.1279 155.955 89.6495C155.427 89.1631 154.131 90.3184 153.836 90.5657C151.897 92.1954 150.192 94.0805 147.87 95.2805C146.998 95.7305 146.059 96.4278 145.667 97.3075C145.385 97.9399 145.658 98.4548 146.46 98.0372Z" fill="black"/>
<path d="M161.675 106.273C163.217 103.528 165.327 101.08 166.869 98.331C167.288 97.5851 166.772 97.3905 166.076 97.6013C165.164 97.877 164.296 98.8742 163.873 99.6283C162.331 102.373 160.221 104.821 158.678 107.57C158.26 108.316 158.775 108.511 159.472 108.3C160.384 108.028 161.252 107.027 161.675 106.273Z" fill="black"/>
<path d="M176.832 102.605C177.317 105.207 177.303 107.867 177.792 110.466C177.964 111.378 181.309 109.111 181.097 107.976C180.612 105.374 180.626 102.714 180.136 100.116C179.965 99.2035 176.62 101.47 176.832 102.605Z" fill="black"/>
<path d="M191.332 100.818C192.522 102.521 193.712 104.22 194.897 105.922C195.386 106.624 198.722 104.07 198.012 103.056C196.822 101.353 195.633 99.6549 194.448 97.9522C193.959 97.2509 190.623 99.8049 191.332 100.818Z" fill="black"/>
<path d="M200.753 95.1908C203.313 96.8326 205.282 99.1799 207.842 100.826C208.887 101.495 211.751 98.4664 210.957 97.9596C208.397 96.3178 206.428 93.9705 203.868 92.3246C202.828 91.6557 199.964 94.68 200.753 95.1908Z" fill="black"/>
</g>
<defs>
<clipPath id="clip0_1316_1858">
<rect width="230" height="230" fill="white"/>
</clipPath>
</defs>
</svg>