<?xml version="1.0" encoding="utf-8"?>
<svg xmlns="http://www.w3.org/2000/svg" width="230" height="230" viewBox="0 0 230 230" fill="none">
<g clip-path="url(#clip0_1316_2059)">
<path d="M115 230C178.513 230 230 178.513 230 115C230 51.4873 178.513 0 115 0C51.4873 0 0 51.4873 0 115C0 178.513 51.4873 230 115 230Z" fill="#D2F260"/>
<path d="M141.617 39.2524C168.195 38.6159 196.006 53.1008 205.863 76.4071C206.934 75.5153 208.004 74.6234 209.071 73.7275C196.954 66.1222 183.013 61.1034 168.543 58.9385C161.229 57.844 153.778 57.4751 146.38 57.8886C139.396 58.2818 132.175 59.3804 126.288 63.0898C116.886 69.0167 112.779 79.9625 115.881 90.0123C119.41 101.432 131.302 108.64 143.014 112.046C160.365 117.089 178.875 114.393 196.429 111.798C197.346 111.665 199.668 109.84 199.051 108.867C189.882 94.3703 169.631 87.738 152.139 90.1988C134.122 92.7325 119.459 106.301 116.934 122.951C115.559 132.003 117.881 141.222 123.913 148.536C124.063 148.637 124.231 148.657 124.411 148.6C128.527 147.469 132.787 148.99 135.678 151.795C137.982 154.029 140.278 158.496 137.709 161.318C135.722 163.499 131.254 163.523 128.5 163.069C125.099 162.51 121.763 160.762 120.432 157.694C119.965 156.619 116.908 159.202 117.128 160.183C118.146 164.654 114.493 167.828 109.664 167.172C105.425 166.596 101.667 163.406 101.438 159.376C101.424 159.108 101.059 159.064 100.847 159.125C92.7708 161.379 83.2535 163.839 75.4899 159.429C72.6524 157.815 70.088 155.326 69.5769 152.184C69.1187 149.379 70.7093 147.38 73.6173 146.626C76.4549 145.888 79.3629 146.695 81.0373 148.986C83.0421 151.726 82.6058 155.452 82.4781 158.577C82.1388 167.05 81.7951 175.527 81.4558 184C81.4823 184.158 81.5792 184.251 81.7555 184.275C102.57 185.569 123.38 186.866 144.195 188.159C145.155 188.22 147.817 186.189 147.107 185.208C139.63 174.886 122.138 174.87 112.968 183.055C113.704 182.812 114.445 182.569 115.18 182.326C115.079 177.38 109.673 174.461 104.835 174.003C99.0583 173.455 93.7489 176.484 91.1141 181.178C88.2898 186.221 89.6292 192.594 93.8283 196.648C98.9217 201.566 107.016 203.021 114.105 202.547C123.526 201.918 132.1 197.816 140.304 193.827C141.137 193.421 142.199 192.663 142.507 191.8C142.732 191.167 142.56 190.656 141.714 191.07C130.016 196.762 116.185 202.936 102.958 197.577C97.6175 195.412 93.4846 191.171 92.9602 185.682C92.7399 183.376 93.1585 180.53 94.9783 178.782C96.5645 177.262 99.1993 176.893 101.389 176.99C106.157 177.205 111.774 179.897 111.876 184.819C111.893 185.755 114 184.17 114.088 184.089C122.173 176.869 138.083 179.922 143.988 188.078C144.957 187.093 145.926 186.108 146.9 185.127C133.893 184.316 120.882 183.509 107.875 182.698C101.517 182.301 95.1545 181.908 88.7965 181.511C87.6641 181.442 85.439 181.766 84.7913 180.72C84.5489 180.327 84.8706 178.803 84.8882 178.336C84.9191 177.542 84.9543 176.747 84.9852 175.953C85.1041 173.038 85.2187 170.127 85.3376 167.212C85.5535 161.902 86.2761 156.38 85.8179 151.077C85.5007 147.38 83.3813 143.667 78.962 143.334C71.8064 142.795 63.9327 150.21 66.9244 156.749C68.8852 161.034 73.8861 163.718 78.68 164.565C85.417 165.757 92.3258 163.908 98.7235 162.125C98.5252 162.039 98.3313 161.954 98.133 161.873C98.4679 167.788 105.65 171.643 111.559 169.835C116.767 168.242 121.622 162.964 120.424 157.702C119.322 158.533 118.221 159.36 117.119 160.191C121.19 169.58 137.246 167.427 141.251 159.137C143.618 154.244 140.132 148.88 135.36 146.529C134.193 145.953 132.928 145.511 131.62 145.296C130.915 145.183 130.201 145.134 129.487 145.151C128.831 145.167 127.932 145.479 127.319 145.402C126.13 145.252 125.231 143.363 124.623 142.414C123.759 141.068 123.006 139.665 122.38 138.21C117.798 127.609 119.49 114.944 126.702 105.665C134.395 95.7609 147.883 91.9379 160.665 92.8744C174.637 93.9001 188.727 100.342 195.927 111.734C196.799 110.757 197.672 109.78 198.549 108.803C183.603 111.012 168.182 113.294 153.113 110.708C141.265 108.673 129.051 103.459 122.305 93.8758C116.828 86.0921 116.075 73.6221 123.856 66.8033C128.8 62.4736 136.374 61.3953 142.913 60.9736C149.68 60.5358 156.505 60.775 163.225 61.6182C178.488 63.5317 193.217 68.6032 205.955 76.5936C206.872 77.1693 209.533 74.7856 209.163 73.914C199.196 50.3482 171.284 35.5633 144.323 36.2119C143.41 36.2322 142.551 36.9943 142.014 37.6146C141.873 37.7808 140.793 39.2727 141.617 39.2524Z" fill="black"/>
<path d="M96.9747 100.846C82.2582 112.023 60.2628 113.75 42.8102 107.462C40.5674 106.655 38.3908 105.707 36.2979 104.604C34.3724 103.591 31.7948 102.2 31.2044 100.072C30.2174 96.5002 39.4218 94.7327 42.1845 94.1124C50.9923 92.134 60.3069 92.0489 69.2381 93.3421C78.7377 94.7164 88.3167 97.7204 95.7586 103.481C96.6795 104.191 99.6845 101.243 98.8738 100.615C91.4142 94.8462 81.7648 91.7651 72.2519 90.3503C62.4174 88.8868 51.9881 89.0692 42.3695 91.5868C37.9722 92.7381 33.0021 94.2908 29.8649 97.4975C28.3536 99.0461 27.2036 101.081 28.1245 103.153C29.0983 105.346 31.5921 106.672 33.7379 107.762C43.1186 112.534 54.0149 114.557 64.6822 113.981C76.517 113.344 88.0347 109.574 97.2171 102.601C97.6268 102.289 99.0897 101.077 98.7416 100.477C98.3759 99.8326 97.3801 100.538 96.9747 100.846Z" fill="black"/>
<path d="M44.0885 95.4811C41.9075 102.884 50.169 109.909 58.0339 108.575C65.1586 107.367 72.0322 99.6892 69.318 92.9514C68.9038 91.9217 65.6125 94.4433 66.0134 95.4406C68.3355 101.201 63.4931 106.536 56.9148 105.6C51.037 104.761 45.6924 99.1257 47.3402 93.5271C47.6002 92.6393 46.3797 93.142 46.014 93.3366C45.2121 93.7582 44.3353 94.6379 44.0885 95.4811Z" fill="black"/>
<path d="M153.589 91.8639C150.862 98.1962 153.58 106.357 161.362 108.011C166.155 109.032 170.932 107.22 174.496 104.301C177.514 101.833 180.528 97.9813 179.599 94.053C179.374 93.1044 176.034 95.4354 176.294 96.5422C178.1 104.147 166.605 107.05 160.899 103.803C156.312 101.192 154.633 95.0908 156.581 90.5666C157.4 88.6734 153.977 90.9639 153.589 91.8639Z" fill="black"/>
<path d="M30.0719 72.8342C46.7932 59.7155 72.7409 58.5966 91.1409 69.3924C92.2336 70.0329 95.0315 66.9802 94.256 66.5262C74.4813 54.9237 47.551 57.1696 29.8208 71.0788C29.4154 71.395 27.9437 72.5991 28.2962 73.2031C28.6664 73.8396 29.6754 73.1463 30.0719 72.8342Z" fill="black"/>
</g>
<defs>
<clipPath id="clip0_1316_2059">
<rect width="230" height="230" fill="white"/>
</clipPath>
</defs>
</svg>