<?xml version="1.0" encoding="utf-8"?>
<svg xmlns="http://www.w3.org/2000/svg" width="230" height="230" viewBox="0 0 230 230" fill="none">
<g clip-path="url(#clip0_1316_2251)">
<path d="M115 230C178.513 230 230 178.513 230 115C230 51.4873 178.513 0 115 0C51.4873 0 0 51.4873 0 115C0 178.513 51.4873 230 115 230Z" fill="#FFC4B0"/>
<path d="M83.7437 50.0181C75.4734 45.5871 65.9738 43.3412 56.3949 43.8114C48.0541 44.2249 38.3694 46.2843 32.4343 52.0896C29.9405 54.5301 28.1472 57.7814 28.8081 61.207C29.4294 64.4097 32.073 66.8218 35.0824 68.3218C42.26 71.9014 51.7112 71.3298 59.391 69.5785C69.2652 67.3245 78.192 62.1962 85.0744 55.349C84.3385 55.5923 83.5983 55.8355 82.8625 56.0788C87.4184 69.311 85.537 84.9026 76.3943 96.1807C68.6704 105.712 54.1654 112.725 41.0571 110.005C35.4922 108.849 29.8656 105.906 27.1117 101.143C24.0186 95.7834 25.9529 89.5079 31.0773 85.9323C36.7479 81.9756 44.1679 80.1432 50.896 78.3594C59.0518 76.1946 67.3926 74.6014 75.8127 73.6041C84.3826 72.5906 93.0363 72.2014 101.677 72.4406C103.721 72.4974 105.77 72.5906 107.81 72.7163C108.762 72.7771 109.718 72.842 110.67 72.9149C111.542 72.9839 113.626 72.8744 114.181 73.4784C115.129 74.5082 114.058 78.027 113.824 79.3689C113.485 81.3107 113.022 83.2364 112.485 85.1418C108.334 99.7645 99.0771 113.52 99.8217 129.075C100.311 139.242 107.594 153.678 120.905 152.264C131.59 151.128 141.557 139.733 135.811 130.157C133.026 125.519 127.104 122.641 121.394 122.811C114.706 123.014 108.726 126.715 104.1 130.891C93.7104 140.272 87.6476 153.788 86.3874 167.012C86.0658 170.397 86.0437 173.782 86.3213 177.171C86.3477 177.329 86.4447 177.423 86.6209 177.447C94.01 179.482 101.602 180.836 109.295 181.391C115.807 181.862 123.148 182.32 129.55 180.856C134.062 179.827 138.997 177.143 140.481 172.829C142.024 168.346 138.212 164.357 133.374 164.012C126.756 163.542 121.584 169.538 117.966 173.806C118.834 173.429 119.702 173.052 120.57 172.679C119.231 166.221 112.45 162.155 105.479 162.682C97.9623 163.25 92.252 169.343 90.6393 175.825C88.8328 183.086 91.4324 191.263 97.9315 195.876C104.889 200.814 114.604 201.122 122.46 197.903C132.136 193.934 139.19 185.818 143.874 177.305C144.284 176.559 143.782 176.364 143.081 176.575C142.178 176.847 141.292 177.848 140.878 178.602C137.313 185.08 132.268 191.307 125.056 194.632C118.451 197.672 110.211 197.899 103.659 194.579C97.4468 191.429 93.8205 185.608 93.4284 179.15C93.0715 173.271 95.4684 166.546 102.633 165.747C109.29 165.005 115.992 169.031 117.266 175.173C117.481 176.21 119.658 174.293 119.87 174.046C122.579 170.851 125.932 166.578 130.925 167.077C134.507 167.434 137.921 170.077 137.516 173.628C137.115 177.147 132.083 177.982 128.951 178.318C123.641 178.886 118.142 178.764 112.82 178.416C107.612 178.075 102.43 177.382 97.3278 176.344C95.984 176.068 94.6445 175.773 93.3094 175.452C92.3092 175.209 90.4719 175.055 89.8418 174.321C89.2205 173.6 89.4541 172.201 89.432 171.281C89.4012 169.915 89.4188 168.548 89.4893 167.182C89.952 158.243 92.6573 149.3 97.4556 141.504C101.857 134.357 108.973 126.221 118.689 125.86C126.369 125.576 134.185 131.122 134.256 138.488C134.326 145.789 126.254 150.666 118.817 149.008C110.727 147.204 105.818 139.441 104.025 132.504C101.28 121.879 105.03 110.978 109.039 101.062C113.049 91.1498 117.481 81.254 117.755 70.5271C117.728 70.369 117.631 70.2758 117.455 70.2515C99.6939 68.4839 81.6596 69.3231 64.1937 72.7852C55.9278 74.423 47.543 76.4784 39.7353 79.4986C33.9016 81.7567 28.1296 85.1661 24.7677 90.2376C21.6261 94.9727 21.4455 100.863 24.9748 105.464C28.4248 109.964 34.492 112.612 40.2949 113.382C53.9539 115.198 68.0359 107.589 76.6146 98.3618C87.9075 86.2161 91.3928 68.7596 86.1715 53.5937C85.8719 52.7302 84.2152 54.068 83.9596 54.3234C73.9621 64.2678 57.2453 70.5434 42.5244 67.0002C36.8008 65.6218 29.2223 60.53 32.7736 54.2464C34.514 51.1653 38.8937 49.7627 42.26 48.7856C46.1947 47.6424 50.2924 46.9735 54.4165 46.8276C63.5945 46.5033 72.7064 48.6438 80.633 52.8923C81.7742 53.4964 84.4972 50.4235 83.7437 50.0181Z" fill="black"/>
<path d="M38.5233 83.03C37.2939 91.4339 44.5112 100.973 54.3148 100.803C63.0169 100.649 69.4279 92.5568 70.4721 85.1988C71.0846 80.8813 70.1637 76.4382 67.1235 73.0166C66.4713 72.2829 63.2284 75.0071 64.0083 75.8828C66.8547 79.0854 67.8108 83.334 67.1807 87.388C66.5991 91.1258 64.7794 95.3662 60.7874 96.9919C50.5784 101.147 40.5016 89.7961 41.7794 81.0759C41.9777 79.7057 38.6731 82.0124 38.5233 83.03Z" fill="black"/>
<path d="M141.327 86.8725C149.809 73.9525 167.553 67.7742 183.313 71.8322C187.38 72.8782 191.429 74.5606 194.602 77.1632C197.915 79.8834 201.493 85.1536 198.184 89.086C195.624 92.1305 189.865 93.3548 186.032 94.2143C181.22 95.2926 176.255 95.7102 171.311 95.471C160.432 94.948 149.99 91.3197 141.385 85.1942C140.411 84.5009 137.463 87.4887 138.269 88.0603C147.157 94.3886 158.044 98.1345 169.293 98.5399C174.655 98.7345 180.066 98.1953 185.243 96.8939C190.138 95.6656 195.258 93.9183 198.907 90.5414C202.313 87.3914 203.797 83.1145 201.638 78.9429C199.435 74.6862 194.919 71.9822 190.35 70.1904C181.802 66.8377 171.985 66.7931 163.212 69.4607C153.065 72.5457 144.315 79.0159 138.789 87.4279C138.397 88.0279 138.168 88.5346 138.996 88.6481C139.741 88.7535 141.01 87.359 141.327 86.8725Z" fill="black"/>
<path d="M158.493 75.2024C156.488 83.7644 165.323 94.4791 175.391 90.5629C183.71 87.3319 188.618 77.0429 184.322 69.5147C183.947 68.862 180.572 71.2701 181.207 72.3808C184.287 77.7807 182.361 87.5833 174.554 88.2968C166.23 89.0549 160.146 80.0875 161.749 73.2484C161.956 72.3646 160.828 72.843 160.423 73.0579C159.656 73.4592 158.687 74.3713 158.493 75.2024Z" fill="black"/>
</g>
<defs>
<clipPath id="clip0_1316_2251">
<rect width="230" height="230" fill="white"/>
</clipPath>
</defs>
</svg>