<?xml version="1.0" encoding="utf-8"?>
<svg xmlns="http://www.w3.org/2000/svg" width="16" height="16" viewBox="0 0 16 16" fill="none">
<path d="M9.39028 9.69105L11.6703 9.18439C12.1487 9.07807 12.6337 9.33414 12.8157 9.78918L14.3107 13.5267C14.3879 13.7197 14.2097 13.9171 14.0099 13.86L12.75 13.5L11.0744 13.0212C11.0259 13.0074 10.9744 13.0085 10.9266 13.0245L8.08688 13.971C8.03078 13.9897 7.96987 13.9879 7.91497 13.966L5.57506 13.03C5.52626 13.0105 5.47256 13.0069 5.42158 13.0196L2.02733 13.8682C1.82011 13.92 1.64757 13.7049 1.74309 13.5138L3.63741 9.72518C3.84877 9.30247 4.3272 9.08543 4.78448 9.20483L6.64661 9.69105" stroke="#444444" stroke-linecap="round"/>
<path d="M14.4638 3.77023C14.6659 3.85681 14.6659 4.14322 14.4638 4.2298L8.34848 6.85067C8.18351 6.92137 8 6.80036 8 6.62088L8 1.37915C8 1.19967 8.18351 1.07866 8.34848 1.14936L14.4638 3.77023Z" stroke="#444444"/>
<path d="M8 4.5V11.5" stroke="#444444" stroke-linecap="round"/>
</svg>