<?xml version="1.0" encoding="utf-8"?>
<!-- Generator: Adobe Illustrator 18.1.1, SVG Export Plug-In . SVG Version: 6.00 Build 0)  -->
<svg version="1.1" id="Layer_1" xmlns="http://www.w3.org/2000/svg" xmlns:xlink="http://www.w3.org/1999/xlink" x="0px" y="0px"
	 viewBox="0 0 285.3 201.7" enable-background="new 0 0 285.3 201.7" xml:space="preserve">
<g>
	<defs>
		<rect id="SVGID_1_" width="285.3" height="201.7"/>
	</defs>
	<clipPath id="SVGID_2_">
		<use xlink:href="#SVGID_1_"  overflow="visible"/>
	</clipPath>
	<path clip-path="url(#SVGID_2_)" fill="#FFFFFF" d="M99.5,133.1c-2.1-1.6-5-1.3-8.1,1.6c-0.1,0.1-0.3,0.2-0.4,0.2
		c-0.9,0.5-1.5,0.7-2.6,0.9c-0.2,0-0.2,0.2,0,0.3c1.3,0.5,1.9,0.8,3.7,1c0.3,0,0.7,0.1,1,0.2c0.9,0.3,1.6,0.9,2.1,1.5
		c0.3-0.7,0.8-1.3,1.3-1.8l3.6-3.6C99.8,133.3,99.7,133.2,99.5,133.1 M95.2,134.1c-0.1,0.1-0.2,0.2-0.4,0.2c-0.3,0.1-0.8,0-1.1-0.1
		c0,0,0-0.1,0-0.1c0.1-0.2,0.6-0.4,0.9-0.5c0.1,0,0.3,0,0.4,0C95.3,133.6,95.4,133.9,95.2,134.1"/>
	<path clip-path="url(#SVGID_2_)" fill="#FFFFFF" d="M110.8,123.3l-14.1,14.1c-2.6,2.6-2.6,6.7,0,9.3l14.1-14.1
		C113.4,130,113.4,125.8,110.8,123.3"/>
	<path clip-path="url(#SVGID_2_)" fill="#FFFFFF" d="M112.5,131.7l-11.1,11.1c-2.3,2.3-2.3,6.1,0,8.4l0.5,0.5l11.1-11.1
		c2.3-2.3,2.3-6.1,0-8.4L112.5,131.7z"/>
	<path clip-path="url(#SVGID_2_)" fill="#FFFFFF" d="M110.6,143.7l-5.3,5.3c-1.7,1.7-1.7,4.5,0,6.2l1.5,1.5l5.3-5.3
		c1.7-1.7,1.7-4.5,0-6.2L110.6,143.7z"/>
	<path clip-path="url(#SVGID_2_)" fill="#FFFFFF" d="M125.2,132.9c0-0.7,0.2-1.2,0.5-1.5c0.3-0.3,0.8-0.5,1.4-0.5
		c0.3,0,0.6,0,0.9,0.1c0.3,0.1,0.6,0.2,0.9,0.4l1.5-2.7c-1.1-0.8-2.4-1.3-3.9-1.3c-1,0-1.9,0.2-2.7,0.6c-0.8,0.4-1.5,1-2.1,1.8
		c-0.5,0.8-0.8,1.8-0.8,3v0.7h-2.4v3.5h2.4v10.1h4.4v-10.1h3.7v-3.5h-3.7V132.9z"/>
	<polygon clip-path="url(#SVGID_2_)" fill="#FFFFFF" points="131.6,128.8 131.6,147.3 135.9,147.3 135.9,128.8 	"/>
	<polygon clip-path="url(#SVGID_2_)" fill="#FFFFFF" points="148.7,133.7 146.9,138 145.3,142.4 143.9,138 142.3,133.7 137.6,133.7 
		142.9,147.1 141,151.4 145.6,151.4 153.4,133.7 	"/>
	<path clip-path="url(#SVGID_2_)" fill="#FFFFFF" d="M161.8,132.9c0-0.7,0.2-1.2,0.5-1.5c0.3-0.3,0.8-0.5,1.4-0.5
		c0.3,0,0.6,0,0.9,0.1c0.3,0.1,0.6,0.2,0.9,0.4l1.5-2.7c-1.1-0.8-2.4-1.3-3.9-1.3c-1,0-1.9,0.2-2.7,0.6c-0.8,0.4-1.5,1-2.1,1.8
		c-0.5,0.8-0.8,1.8-0.8,3v0.7H155v3.5h2.4v10.1h4.4v-10.1h3.7v-3.5h-3.7V132.9z"/>
	<path clip-path="url(#SVGID_2_)" fill="#FFFFFF" d="M171.8,129c-0.5-0.4-1.1-0.7-1.8-0.7c-0.7,0-1.4,0.2-1.8,0.7
		c-0.5,0.4-0.7,1-0.7,1.7c0,0.7,0.2,1.2,0.7,1.7c0.5,0.4,1.1,0.7,1.8,0.7c0.8,0,1.4-0.2,1.8-0.7c0.5-0.4,0.7-1,0.7-1.7
		C172.5,130,172.2,129.4,171.8,129"/>
	<rect x="167.8" y="133.7" clip-path="url(#SVGID_2_)" fill="#FFFFFF" width="4.3" height="13.6"/>
	<path clip-path="url(#SVGID_2_)" fill="#FFFFFF" d="M195.5,134.9c-1-1-2.3-1.5-4.1-1.5c-2,0-3.6,0.7-4.7,2.1
		c-0.4-0.7-1-1.2-1.7-1.5c-0.7-0.4-1.5-0.6-2.4-0.6c-0.8,0-1.5,0.2-2.2,0.5c-0.7,0.3-1.2,0.8-1.7,1.4l-0.2-1.5h-3.8v13.6h4.3v-7.4
		c0-0.8,0.2-1.5,0.7-2c0.5-0.5,1-0.8,1.8-0.8c0.7,0,1.2,0.2,1.6,0.7c0.4,0.5,0.6,1.1,0.6,1.9v7.7h4.3v-7.4c0-0.8,0.2-1.5,0.7-2
		c0.4-0.5,1-0.8,1.8-0.8c0.7,0,1.2,0.2,1.6,0.7s0.6,1.1,0.6,1.9v7.7h4.3V139C197,137.3,196.5,135.9,195.5,134.9"/>
	<path clip-path="url(#SVGID_2_)" fill="#FFFFFF" d="M158.8,149.9c0,0,0-0.1,0-0.1C158.8,149.8,158.7,149.9,158.8,149.9
		c0,0.1,0,0.1,0,0.1c0,0.1,0,0.2,0,0.3v0.1h1.1v0.6h-1.1v3.1h-0.6V151h-0.7v-0.6h0.7v-0.2c0-0.4,0.1-0.7,0.4-1
		c0.2-0.2,0.6-0.4,1-0.4c0.3,0,0.6,0,0.8,0.2v0.6c-0.2-0.1-0.5-0.2-0.8-0.2C159.1,149.5,158.9,149.6,158.8,149.9"/>
	<path clip-path="url(#SVGID_2_)" fill="#FFFFFF" d="M158.8,149.8c0,0,0,0.1,0,0.1c0,0,0,0.1,0,0.1
		C158.7,149.9,158.8,149.8,158.8,149.8"/>
	<path clip-path="url(#SVGID_2_)" fill="#FFFFFF" d="M158.8,149.6c0,0,0,0.1-0.1,0.1C158.8,149.7,158.8,149.7,158.8,149.6"/>
	<rect x="158.7" y="151" clip-path="url(#SVGID_2_)" fill="#FFFFFF" width="0" height="2.8"/>
	<path clip-path="url(#SVGID_2_)" fill="#FFFFFF" d="M158.8,149.6c0,0,0,0.1-0.1,0.1C158.8,149.7,158.8,149.7,158.8,149.6"/>
	<path clip-path="url(#SVGID_2_)" fill="#FFFFFF" d="M158.8,149.8c0,0,0,0.1,0,0.1c0,0.1,0,0.2,0,0.4v0.1h0v-0.2c0-0.1,0-0.2,0-0.3
		c0,0,0,0,0,0C158.7,149.9,158.8,149.8,158.8,149.8"/>
	<polygon clip-path="url(#SVGID_2_)" fill="#FFFFFF" points="164.7,150.5 163.4,153.6 163,152.5 162.1,150.5 161.8,150.5 
		163.3,153.9 162.5,155.6 162.8,155.6 165,150.5 	"/>
	<path clip-path="url(#SVGID_2_)" fill="#FFFFFF" d="M162.9,155.8h-0.6l0.8-1.8l-1.5-3.5h0.6l1.2,2.8l1.2-2.8h0.6L162.9,155.8z
		 M162.7,155.5L162.7,155.5l0.3-0.8L162.7,155.5z M162,150.7l0.2,0.5L162,150.7z"/>
	<path clip-path="url(#SVGID_2_)" fill="#FFFFFF" d="M167.5,154h0.3v-3.4h-0.3V154z M167.9,149.3c0,0-0.1-0.1-0.2-0.1
		c-0.1,0-0.1,0-0.2,0.1c0,0-0.1,0.1-0.1,0.2c0,0.1,0,0.1,0.1,0.2c0,0,0.1,0.1,0.2,0.1c0.1,0,0.1,0,0.2-0.1c0.1,0,0.1-0.1,0.1-0.2
		C168,149.4,167.9,149.4,167.9,149.3"/>
	<path clip-path="url(#SVGID_2_)" fill="#FFFFFF" d="M168,154.1h-0.6v-3.7h0.6V154.1z M167.7,149.9c-0.1,0-0.2,0-0.3-0.1
		c-0.1-0.1-0.1-0.2-0.1-0.3c0-0.1,0-0.2,0.1-0.3c0.2-0.2,0.4-0.2,0.6,0c0.1,0.1,0.1,0.2,0.1,0.3c0,0.1,0,0.2-0.1,0.3
		C167.9,149.8,167.8,149.9,167.7,149.9 M167.7,149.4C167.7,149.4,167.6,149.4,167.7,149.4c-0.1,0.1-0.1,0.1-0.1,0.1c0,0,0,0.1,0,0.1
		c0,0,0,0,0.1,0c0,0,0.1,0,0.1,0c0,0,0,0,0-0.1S167.8,149.4,167.7,149.4L167.7,149.4C167.8,149.4,167.7,149.4,167.7,149.4"/>
	<path clip-path="url(#SVGID_2_)" fill="#FFFFFF" d="M171.6,150.9c-0.3-0.3-0.6-0.4-1.1-0.4c-0.3,0-0.5,0.1-0.8,0.2
		c-0.2,0.1-0.4,0.3-0.6,0.5v-0.7H169v3.4h0.3v-1.9c0-0.2,0.1-0.5,0.2-0.7c0.1-0.2,0.3-0.4,0.5-0.5c0.2-0.1,0.4-0.2,0.7-0.2
		c0.4,0,0.7,0.1,0.9,0.3c0.2,0.2,0.3,0.5,0.3,0.9v1.9h0.3v-2C172,151.5,171.9,151.2,171.6,150.9"/>
	<path clip-path="url(#SVGID_2_)" fill="#FFFFFF" d="M172.2,154.1h-0.6V152c0-0.4-0.1-0.6-0.3-0.8c-0.2-0.2-0.4-0.3-0.8-0.3
		c-0.2,0-0.4,0-0.6,0.1c-0.2,0.1-0.3,0.2-0.4,0.4c-0.1,0.2-0.1,0.4-0.1,0.6v2h-0.6v-3.7h0.6v0.4c0.1-0.1,0.2-0.2,0.3-0.2
		c0.3-0.1,0.5-0.2,0.9-0.2c0.5,0,0.9,0.1,1.2,0.4c0.3,0.3,0.4,0.7,0.4,1.2V154.1z M171.9,153.8L171.9,153.8l0-1.8
		c0-0.4-0.1-0.8-0.3-1l0,0c0,0-0.1-0.1-0.1-0.1c0,0,0.1,0.1,0.1,0.1c0.2,0.2,0.3,0.6,0.3,1V153.8z M169.1,151.7v0.3
		c0-0.1,0-0.3,0.1-0.4L169.1,151.7z"/>
	<path clip-path="url(#SVGID_2_)" fill="#FFFFFF" d="M179.9,150.9c-0.2-0.3-0.6-0.4-1-0.4c-0.3,0-0.5,0.1-0.8,0.2
		c-0.2,0.2-0.4,0.4-0.5,0.6c-0.1-0.3-0.2-0.5-0.5-0.6c-0.2-0.1-0.5-0.2-0.8-0.2c-0.2,0-0.5,0.1-0.7,0.2c-0.2,0.1-0.4,0.3-0.5,0.5
		v-0.6H175v3.4h0.3V152c0-0.2,0-0.5,0.2-0.6c0.1-0.2,0.2-0.3,0.4-0.4c0.2-0.1,0.4-0.2,0.6-0.2c0.4,0,0.6,0.1,0.8,0.3
		c0.2,0.2,0.3,0.5,0.3,0.9v2h0.3V152c0-0.2,0-0.5,0.1-0.6c0.1-0.2,0.2-0.3,0.4-0.4c0.2-0.1,0.4-0.2,0.6-0.2c0.3,0,0.6,0.1,0.8,0.3
		c0.2,0.2,0.3,0.5,0.3,0.9v2h0.3v-2C180.2,151.5,180.1,151.2,179.9,150.9"/>
	<path clip-path="url(#SVGID_2_)" fill="#FFFFFF" d="M180.4,154.1h-0.6V152c0-0.4-0.1-0.6-0.2-0.8c-0.2-0.2-0.4-0.3-0.7-0.3
		c-0.2,0-0.4,0-0.5,0.1c-0.2,0.1-0.3,0.2-0.4,0.4c-0.1,0.2-0.1,0.4-0.1,0.6v2.1h-0.6V152c0-0.3-0.1-0.6-0.2-0.8
		c-0.1-0.2-0.4-0.3-0.7-0.3c-0.2,0-0.4,0-0.5,0.1c-0.2,0.1-0.3,0.2-0.4,0.4c-0.1,0.2-0.1,0.4-0.1,0.6v2.1h-0.6v-3.7h0.6v0.4
		c0.1-0.1,0.2-0.2,0.3-0.2c0.2-0.1,0.5-0.2,0.7-0.2c0.3,0,0.6,0.1,0.9,0.2c0.2,0.1,0.3,0.3,0.4,0.4c0.1-0.2,0.3-0.3,0.4-0.4
		c0.3-0.2,0.5-0.2,0.8-0.2c0.4,0,0.8,0.1,1.1,0.4l0,0c0.3,0.3,0.4,0.7,0.4,1.2V154.1z M180.1,153.8L180.1,153.8l0-1.8
		c0-0.3-0.1-0.6-0.2-0.8c0.1,0.2,0.2,0.5,0.2,0.8V153.8z M177.6,151.6c0,0.1,0,0.2,0,0.3C177.6,151.9,177.6,151.8,177.6,151.6l0,0.1
		L177.6,151.6z M175.1,151.7v0.2C175.1,151.8,175.1,151.7,175.1,151.7L175.1,151.7z"/>
	<path clip-path="url(#SVGID_2_)" fill="#FFFFFF" d="M181.3,154h0.3v-3.4h-0.3V154z M181.7,149.3c0,0-0.1-0.1-0.2-0.1
		c-0.1,0-0.1,0-0.2,0.1c0,0-0.1,0.1-0.1,0.2c0,0.1,0,0.1,0.1,0.2c0,0,0.1,0.1,0.2,0.1c0.1,0,0.1,0,0.2-0.1c0.1,0,0.1-0.1,0.1-0.2
		C181.7,149.4,181.7,149.4,181.7,149.3"/>
	<path clip-path="url(#SVGID_2_)" fill="#FFFFFF" d="M181.8,154.1h-0.6v-3.7h0.6V154.1z M181.5,149.9c-0.1,0-0.2,0-0.3-0.1
		c-0.1-0.1-0.1-0.2-0.1-0.3c0-0.1,0-0.2,0.1-0.3c0.2-0.2,0.4-0.2,0.6,0c0.1,0.1,0.1,0.2,0.1,0.3c0,0.1,0,0.2-0.1,0.3
		C181.7,149.8,181.6,149.9,181.5,149.9 M181.5,149.4C181.4,149.4,181.4,149.4,181.5,149.4c-0.1,0.1-0.1,0.1-0.1,0.1c0,0,0,0.1,0,0.1
		c0,0,0,0,0.1,0c0,0,0.1,0,0.1,0c0,0,0,0,0-0.1S181.6,149.4,181.5,149.4L181.5,149.4C181.5,149.4,181.5,149.4,181.5,149.4"/>
	<path clip-path="url(#SVGID_2_)" fill="#FFFFFF" d="M185.4,150.9c-0.3-0.3-0.6-0.4-1.1-0.4c-0.3,0-0.5,0.1-0.8,0.2
		c-0.2,0.1-0.4,0.3-0.5,0.5v-0.7h-0.3v3.4h0.3v-1.9c0-0.2,0.1-0.5,0.2-0.7c0.1-0.2,0.3-0.4,0.5-0.5c0.2-0.1,0.4-0.2,0.7-0.2
		c0.4,0,0.7,0.1,0.9,0.3c0.2,0.2,0.3,0.5,0.3,0.9v1.9h0.3v-2C185.8,151.5,185.7,151.2,185.4,150.9"/>
	<path clip-path="url(#SVGID_2_)" fill="#FFFFFF" d="M186,154.1h-0.6V152c0-0.4-0.1-0.6-0.3-0.8c-0.2-0.2-0.4-0.3-0.8-0.3
		c-0.2,0-0.4,0-0.6,0.1c-0.2,0.1-0.3,0.2-0.4,0.4c-0.1,0.2-0.1,0.4-0.1,0.6v2h-0.6v-3.7h0.6v0.4c0.1-0.1,0.2-0.2,0.3-0.2
		c0.3-0.1,0.6-0.2,0.9-0.2c0.5,0,0.9,0.1,1.2,0.4c0.3,0.3,0.4,0.7,0.4,1.2V154.1z M185.7,153.8L185.7,153.8l0-1.8
		c0-0.4-0.1-0.8-0.3-1l0,0c0,0-0.1-0.1-0.1-0.1c0,0,0.1,0.1,0.1,0.1c0.2,0.2,0.3,0.6,0.3,1V153.8z M182.9,151.7v0.3
		c0-0.1,0-0.3,0.1-0.4L182.9,151.7z"/>
	<path clip-path="url(#SVGID_2_)" fill="#FFFFFF" d="M189.6,150.5v1.9c0,0.2-0.1,0.5-0.2,0.7c-0.1,0.2-0.3,0.3-0.5,0.5
		c-0.2,0.1-0.4,0.2-0.7,0.2c-0.4,0-0.6-0.1-0.8-0.3c-0.2-0.2-0.3-0.5-0.3-0.9v-2h-0.3v2c0,0.5,0.1,0.8,0.4,1.1
		c0.3,0.3,0.6,0.4,1,0.4c0.3,0,0.5-0.1,0.8-0.2c0.2-0.1,0.4-0.3,0.5-0.5v0.7h0.3v-3.4H189.6z"/>
	<path clip-path="url(#SVGID_2_)" fill="#FFFFFF" d="M188.3,154.1c-0.5,0-0.9-0.1-1.1-0.4c-0.3-0.3-0.4-0.7-0.4-1.2v-2.1h0.6v2.1
		c0,0.3,0.1,0.6,0.3,0.8c0.2,0.2,0.4,0.3,0.7,0.3c0.2,0,0.4,0,0.6-0.2c0.2-0.1,0.3-0.2,0.4-0.4c0.1-0.2,0.1-0.4,0.1-0.6v-2h0.6v3.7
		h-0.6v-0.4c-0.1,0.1-0.2,0.2-0.3,0.2C188.9,154.1,188.6,154.1,188.3,154.1 M187,152.8c0,0.3,0.1,0.5,0.3,0.7
		c0.1,0.1,0.1,0.1,0.2,0.1c-0.1,0-0.1-0.1-0.2-0.1C187.2,153.3,187.1,153.1,187,152.8 M189.7,152.5c0,0.1,0,0.2-0.1,0.3l0.1-0.1
		V152.5z"/>
	<path clip-path="url(#SVGID_2_)" fill="#FFFFFF" d="M192.9,153.6c-0.1,0-0.2,0.1-0.3,0.1c-0.1,0-0.2,0-0.3,0
		c-0.3,0-0.4-0.1-0.5-0.2c-0.1-0.1-0.1-0.3-0.1-0.6v-2.1h1.2v-0.3h-1.2v-1l-0.3,0v1h-0.7v0.3h0.7v2.1c0,0.4,0.1,0.6,0.2,0.8
		c0.1,0.2,0.4,0.3,0.7,0.3c0.2,0,0.4-0.1,0.7-0.2L192.9,153.6z"/>
	<path clip-path="url(#SVGID_2_)" fill="#FFFFFF" d="M192.4,154.2c-0.4,0-0.7-0.1-0.8-0.3c-0.2-0.2-0.2-0.5-0.2-0.9v-2h-0.7v-0.6
		h0.7v-1l0.6,0v1h1.2v0.6h-1.2v2c0,0.3,0.1,0.5,0.1,0.5c0.1,0.1,0.2,0.1,0.4,0.1c0.1,0,0.1,0,0.2,0c0.1,0,0.2-0.1,0.3-0.1l0.1-0.1
		l0.2,0.5l-0.1,0.1C192.8,154.1,192.6,154.2,192.4,154.2 M191.6,153.3c0,0.1,0.1,0.2,0.1,0.3c0,0,0,0,0.1,0.1c0,0-0.1-0.1-0.1-0.1
		C191.7,153.5,191.6,153.4,191.6,153.3"/>
	<path clip-path="url(#SVGID_2_)" fill="#FFFFFF" d="M196.9,152.2c0-0.3-0.1-0.6-0.2-0.9c-0.1-0.3-0.3-0.5-0.6-0.6
		c-0.3-0.1-0.6-0.2-0.9-0.2c-0.3,0-0.6,0.1-0.9,0.2c-0.3,0.2-0.5,0.4-0.6,0.6c-0.1,0.3-0.2,0.6-0.2,0.9c0,0.3,0.1,0.6,0.2,0.9
		c0.2,0.3,0.4,0.5,0.6,0.6c0.3,0.2,0.6,0.2,0.9,0.2c0.3,0,0.6-0.1,0.8-0.2c0.3-0.1,0.5-0.3,0.6-0.5l-0.2-0.2
		c-0.1,0.2-0.3,0.3-0.5,0.4c-0.2,0.1-0.5,0.2-0.7,0.2c-0.4,0-0.7-0.1-1-0.4c-0.3-0.3-0.4-0.6-0.4-1h3.1
		C196.9,152.3,196.9,152.2,196.9,152.2 M193.7,152.1c0-0.4,0.2-0.7,0.4-1c0.3-0.2,0.6-0.4,1-0.4c0.3,0,0.5,0.1,0.7,0.2
		c0.2,0.1,0.4,0.3,0.5,0.5c0.1,0.2,0.2,0.4,0.2,0.7H193.7z"/>
	<path clip-path="url(#SVGID_2_)" fill="#FFFFFF" d="M195.2,154.2c-0.4,0-0.7-0.1-1-0.3c-0.3-0.2-0.5-0.4-0.7-0.7
		c-0.2-0.3-0.2-0.6-0.2-1c0-0.4,0.1-0.7,0.2-1c0.2-0.3,0.4-0.5,0.7-0.7c0.3-0.2,0.6-0.2,1-0.2c0.4,0,0.7,0.1,1,0.2
		c0.3,0.1,0.5,0.4,0.7,0.6c0.2,0.3,0.2,0.6,0.2,0.9c0,0.1,0,0.2,0,0.2l0,0.1h-3.1c0,0.3,0.2,0.6,0.4,0.8c0.2,0.2,0.5,0.3,0.9,0.3
		c0.2,0,0.5,0,0.7-0.1c0.2-0.1,0.4-0.2,0.5-0.4l0.1-0.1l0.4,0.4l-0.1,0.1c-0.2,0.2-0.4,0.4-0.7,0.5
		C195.8,154.1,195.5,154.2,195.2,154.2 M193.9,151.9h2.5c0-0.2-0.1-0.3-0.2-0.5c-0.1-0.2-0.2-0.3-0.4-0.4c-0.2-0.1-0.4-0.1-0.7-0.1
		c-0.4,0-0.6,0.1-0.9,0.3C194.1,151.4,194,151.7,193.9,151.9"/>
	<rect x="160.6" y="149.7" clip-path="url(#SVGID_2_)" fill="#FFFFFF" width="0.6" height="4.4"/>
	<path clip-path="url(#SVGID_2_)" fill="#800000018000000180000001" d="M99.5,76.2c-2.1-1.6-5-1.3-8.1,1.6c-0.1,0.1-0.3,0.2-0.4,0.2
		c-0.9,0.5-1.5,0.7-2.6,0.9c-0.2,0-0.2,0.2,0,0.3c1.3,0.5,1.9,0.8,3.7,1c0.3,0,0.7,0.1,1,0.2c0.9,0.3,1.6,0.9,2.1,1.5
		c0.3-0.7,0.8-1.3,1.3-1.8l3.6-3.6C99.8,76.5,99.7,76.3,99.5,76.2 M95.2,77.3c-0.1,0.1-0.2,0.2-0.4,0.2c-0.3,0.1-0.8,0-1.1-0.1
		c0,0,0-0.1,0-0.1c0.1-0.2,0.6-0.4,0.9-0.5c0.1,0,0.3,0,0.4,0C95.3,76.8,95.4,77.1,95.2,77.3"/>
	<path clip-path="url(#SVGID_2_)" fill="#800000018000000180000001" d="M110.8,66.4L96.7,80.6c-2.6,2.6-2.6,6.7,0,9.3l14.1-14.1
		C113.4,73.2,113.4,69,110.8,66.4"/>
	<path clip-path="url(#SVGID_2_)" fill="#800000018000000180000001" d="M112.5,74.8l-11.1,11.1c-2.3,2.3-2.3,6.1,0,8.4l0.5,0.5
		L113,83.7c2.3-2.3,2.3-6.1,0-8.4L112.5,74.8z"/>
	<path clip-path="url(#SVGID_2_)" fill="#800000018000000180000001" d="M110.6,86.9l-5.3,5.3c-1.7,1.7-1.7,4.5,0,6.2l1.5,1.5
		l5.3-5.3c1.7-1.7,1.7-4.5,0-6.2L110.6,86.9z"/>
	<path clip-path="url(#SVGID_2_)" fill="#800000018000000180000001" d="M125.2,76.1c0-0.7,0.2-1.2,0.5-1.5c0.3-0.3,0.8-0.5,1.4-0.5
		c0.3,0,0.6,0,0.9,0.1c0.3,0.1,0.6,0.2,0.9,0.4l1.5-2.7c-1.1-0.8-2.4-1.3-3.9-1.3c-1,0-1.9,0.2-2.7,0.6c-0.8,0.4-1.5,1-2.1,1.8
		c-0.5,0.8-0.8,1.8-0.8,3v0.7h-2.4v3.5h2.4v10.1h4.4V80.3h3.7v-3.5h-3.7V76.1z"/>
	<polygon clip-path="url(#SVGID_2_)" fill="#800000018000000180000001" points="131.6,72 131.6,90.4 135.9,90.4 135.9,72 	"/>
	<polygon clip-path="url(#SVGID_2_)" fill="#800000018000000180000001" points="148.7,76.8 146.9,81.1 145.3,85.6 143.9,81.1 
		142.3,76.8 137.6,76.8 142.9,90.3 141,94.6 145.6,94.6 153.4,76.8 	"/>
	<path clip-path="url(#SVGID_2_)" fill="#800000018000000180000001" d="M161.8,76.1c0-0.7,0.2-1.2,0.5-1.5c0.3-0.3,0.8-0.5,1.4-0.5
		c0.3,0,0.6,0,0.9,0.1c0.3,0.1,0.6,0.2,0.9,0.4l1.5-2.7c-1.1-0.8-2.4-1.3-3.9-1.3c-1,0-1.9,0.2-2.7,0.6c-0.8,0.4-1.5,1-2.1,1.8
		c-0.5,0.8-0.8,1.8-0.8,3v0.7H155v3.5h2.4v10.1h4.4V80.3h3.7v-3.5h-3.7V76.1z"/>
	<path clip-path="url(#SVGID_2_)" fill="#800000018000000180000001" d="M171.8,72.1c-0.5-0.4-1.1-0.7-1.8-0.7
		c-0.7,0-1.4,0.2-1.8,0.7c-0.5,0.4-0.7,1-0.7,1.7c0,0.7,0.2,1.2,0.7,1.7c0.5,0.4,1.1,0.7,1.8,0.7c0.8,0,1.4-0.2,1.8-0.7
		c0.5-0.4,0.7-1,0.7-1.7C172.5,73.2,172.2,72.6,171.8,72.1"/>
	<rect x="167.8" y="76.8" clip-path="url(#SVGID_2_)" fill="#800000018000000180000001" width="4.3" height="13.6"/>
	<path clip-path="url(#SVGID_2_)" fill="#800000018000000180000001" d="M195.5,78c-1-1-2.3-1.5-4.1-1.5c-2,0-3.6,0.7-4.7,2.1
		c-0.4-0.7-1-1.2-1.7-1.6c-0.7-0.4-1.5-0.6-2.4-0.6c-0.8,0-1.5,0.2-2.2,0.5c-0.7,0.3-1.2,0.8-1.7,1.4l-0.2-1.5h-3.8v13.6h4.3V83
		c0-0.8,0.2-1.5,0.7-2c0.5-0.5,1-0.8,1.8-0.8c0.7,0,1.2,0.2,1.6,0.7c0.4,0.5,0.6,1.1,0.6,1.9v7.7h4.3V83c0-0.8,0.2-1.5,0.7-2
		c0.4-0.5,1-0.8,1.8-0.8c0.7,0,1.2,0.2,1.6,0.7s0.6,1.1,0.6,1.9v7.7h4.3v-8.2C197,80.4,196.5,79,195.5,78"/>
	<path clip-path="url(#SVGID_2_)" fill="#800000018000000180000001" d="M158.8,93c0,0,0-0.1,0-0.1C158.8,93,158.7,93.1,158.8,93
		c0,0.1,0,0.1,0,0.1c0,0.1,0,0.2,0,0.3v0.1h1.1v0.6h-1.1v3.1h-0.6v-3.1h-0.7v-0.6h0.7v-0.2c0-0.4,0.1-0.7,0.4-1
		c0.2-0.2,0.6-0.4,1-0.4c0.3,0,0.6,0,0.8,0.2v0.6c-0.2-0.1-0.5-0.2-0.8-0.2C159.1,92.6,158.9,92.8,158.8,93"/>
	<path clip-path="url(#SVGID_2_)" fill="#800000018000000180000001" d="M158.8,92.9c0,0,0,0.1,0,0.1c0,0,0,0.1,0,0.1
		C158.7,93.1,158.8,93,158.8,92.9"/>
	<path clip-path="url(#SVGID_2_)" fill="#800000018000000180000001" d="M158.8,92.8c0,0,0,0.1-0.1,0.1
		C158.8,92.9,158.8,92.9,158.8,92.8"/>
	<rect x="158.7" y="94.1" clip-path="url(#SVGID_2_)" fill="#800000018000000180000001" width="0" height="2.8"/>
	<path clip-path="url(#SVGID_2_)" fill="#800000018000000180000001" d="M158.8,92.8c0,0,0,0.1-0.1,0.1
		C158.8,92.9,158.8,92.9,158.8,92.8"/>
	<path clip-path="url(#SVGID_2_)" fill="#800000018000000180000001" d="M158.8,92.9c0,0,0,0.1,0,0.1c0,0.1,0,0.2,0,0.4v0.1h0v-0.2
		c0-0.1,0-0.2,0-0.3c0,0,0,0,0,0C158.7,93.1,158.8,93,158.8,92.9"/>
	<polygon clip-path="url(#SVGID_2_)" fill="#800000018000000180000001" points="164.7,93.7 163.4,96.8 163,95.7 162.1,93.7 
		161.8,93.7 163.3,97.1 162.5,98.8 162.8,98.8 165,93.7 	"/>
	<path clip-path="url(#SVGID_2_)" fill="#800000018000000180000001" d="M162.9,98.9h-0.6l0.8-1.8l-1.5-3.5h0.6l1.2,2.8l1.2-2.8h0.6
		L162.9,98.9z M162.7,98.6L162.7,98.6l0.3-0.8L162.7,98.6z M162,93.9l0.2,0.5L162,93.9z"/>
	<path clip-path="url(#SVGID_2_)" fill="#800000018000000180000001" d="M167.5,97.1h0.3v-3.4h-0.3V97.1z M167.9,92.5
		c0,0-0.1-0.1-0.2-0.1c-0.1,0-0.1,0-0.2,0.1c0,0-0.1,0.1-0.1,0.2c0,0.1,0,0.1,0.1,0.2c0,0,0.1,0.1,0.2,0.1c0.1,0,0.1,0,0.2-0.1
		c0.1,0,0.1-0.1,0.1-0.2C168,92.6,167.9,92.5,167.9,92.5"/>
	<path clip-path="url(#SVGID_2_)" fill="#800000018000000180000001" d="M168,97.3h-0.6v-3.7h0.6V97.3z M167.7,93.1
		c-0.1,0-0.2,0-0.3-0.1c-0.1-0.1-0.1-0.2-0.1-0.3c0-0.1,0-0.2,0.1-0.3c0.2-0.2,0.4-0.2,0.6,0c0.1,0.1,0.1,0.2,0.1,0.3
		c0,0.1,0,0.2-0.1,0.3C167.9,93,167.8,93.1,167.7,93.1 M167.7,92.5C167.7,92.5,167.6,92.6,167.7,92.5c-0.1,0.1-0.1,0.1-0.1,0.1
		c0,0,0,0.1,0,0.1c0,0,0,0,0.1,0c0,0,0.1,0,0.1,0c0,0,0,0,0-0.1S167.8,92.6,167.7,92.5L167.7,92.5C167.8,92.6,167.7,92.5,167.7,92.5
		"/>
	<path clip-path="url(#SVGID_2_)" fill="#800000018000000180000001" d="M171.6,94.1c-0.3-0.3-0.6-0.4-1.1-0.4
		c-0.3,0-0.5,0.1-0.8,0.2c-0.2,0.1-0.4,0.3-0.6,0.5v-0.7H169v3.4h0.3v-1.9c0-0.2,0.1-0.5,0.2-0.7c0.1-0.2,0.3-0.4,0.5-0.5
		c0.2-0.1,0.4-0.2,0.7-0.2c0.4,0,0.7,0.1,0.9,0.3c0.2,0.2,0.3,0.5,0.3,0.9v1.9h0.3v-2C172,94.7,171.9,94.3,171.6,94.1"/>
	<path clip-path="url(#SVGID_2_)" fill="#800000018000000180000001" d="M172.2,97.3h-0.6v-2.1c0-0.4-0.1-0.6-0.3-0.8
		c-0.2-0.2-0.4-0.3-0.8-0.3c-0.2,0-0.4,0.1-0.6,0.1c-0.2,0.1-0.3,0.2-0.4,0.4c-0.1,0.2-0.1,0.4-0.1,0.6v2h-0.6v-3.7h0.6V94
		c0.1-0.1,0.2-0.2,0.3-0.2c0.3-0.1,0.5-0.2,0.9-0.2c0.5,0,0.9,0.1,1.2,0.4c0.3,0.3,0.4,0.7,0.4,1.2V97.3z M171.9,97L171.9,97l0-1.8
		c0-0.4-0.1-0.8-0.3-1l0,0c0,0-0.1-0.1-0.1-0.1c0,0,0.1,0.1,0.1,0.1c0.2,0.2,0.3,0.6,0.3,1V97z M169.1,94.9v0.3c0-0.1,0-0.3,0.1-0.4
		L169.1,94.9z"/>
	<path clip-path="url(#SVGID_2_)" fill="#800000018000000180000001" d="M179.9,94.1c-0.2-0.3-0.6-0.4-1-0.4c-0.3,0-0.5,0.1-0.8,0.2
		c-0.2,0.2-0.4,0.4-0.5,0.6c-0.1-0.3-0.2-0.5-0.5-0.6c-0.2-0.1-0.5-0.2-0.8-0.2c-0.2,0-0.5,0.1-0.7,0.2c-0.2,0.1-0.4,0.3-0.5,0.5
		v-0.6H175v3.4h0.3v-1.9c0-0.2,0-0.5,0.2-0.6c0.1-0.2,0.2-0.3,0.4-0.4c0.2-0.1,0.4-0.2,0.6-0.2c0.4,0,0.6,0.1,0.8,0.3
		c0.2,0.2,0.3,0.5,0.3,0.9v2h0.3v-1.9c0-0.2,0-0.5,0.1-0.6c0.1-0.2,0.2-0.3,0.4-0.4c0.2-0.1,0.4-0.2,0.6-0.2c0.3,0,0.6,0.1,0.8,0.3
		c0.2,0.2,0.3,0.5,0.3,0.9v2h0.3v-2C180.2,94.7,180.1,94.3,179.9,94.1"/>
	<path clip-path="url(#SVGID_2_)" fill="#800000018000000180000001" d="M180.4,97.3h-0.6v-2.1c0-0.4-0.1-0.6-0.2-0.8
		c-0.2-0.2-0.4-0.3-0.7-0.3c-0.2,0-0.4,0-0.5,0.1c-0.2,0.1-0.3,0.2-0.4,0.4c-0.1,0.2-0.1,0.4-0.1,0.6v2.1h-0.6v-2.1
		c0-0.3-0.1-0.6-0.2-0.8c-0.1-0.2-0.4-0.3-0.7-0.3c-0.2,0-0.4,0-0.5,0.1c-0.2,0.1-0.3,0.2-0.4,0.4c-0.1,0.2-0.1,0.4-0.1,0.6v2.1
		h-0.6v-3.7h0.6v0.4c0.1-0.1,0.2-0.2,0.3-0.2c0.2-0.1,0.5-0.2,0.7-0.2c0.3,0,0.6,0.1,0.9,0.2c0.2,0.1,0.3,0.3,0.4,0.4
		c0.1-0.2,0.3-0.3,0.4-0.4c0.3-0.2,0.5-0.2,0.8-0.2c0.4,0,0.8,0.2,1.1,0.4l0,0c0.3,0.3,0.4,0.7,0.4,1.2V97.3z M180.1,97L180.1,97
		l0-1.8c0-0.3-0.1-0.6-0.2-0.8c0.1,0.2,0.2,0.5,0.2,0.8V97z M177.6,94.8c0,0.1,0,0.2,0,0.3C177.6,95,177.6,94.9,177.6,94.8l0,0.1
		L177.6,94.8z M175.1,94.9v0.2C175.1,95,175.1,94.9,175.1,94.9L175.1,94.9z"/>
	<path clip-path="url(#SVGID_2_)" fill="#800000018000000180000001" d="M181.3,97.1h0.3v-3.4h-0.3V97.1z M181.7,92.5
		c0,0-0.1-0.1-0.2-0.1c-0.1,0-0.1,0-0.2,0.1c0,0-0.1,0.1-0.1,0.2c0,0.1,0,0.1,0.1,0.2c0,0,0.1,0.1,0.2,0.1c0.1,0,0.1,0,0.2-0.1
		c0.1,0,0.1-0.1,0.1-0.2C181.7,92.6,181.7,92.5,181.7,92.5"/>
	<path clip-path="url(#SVGID_2_)" fill="#800000018000000180000001" d="M181.8,97.3h-0.6v-3.7h0.6V97.3z M181.5,93.1
		c-0.1,0-0.2,0-0.3-0.1c-0.1-0.1-0.1-0.2-0.1-0.3c0-0.1,0-0.2,0.1-0.3c0.2-0.2,0.4-0.2,0.6,0c0.1,0.1,0.1,0.2,0.1,0.3
		c0,0.1,0,0.2-0.1,0.3C181.7,93,181.6,93.1,181.5,93.1 M181.5,92.5C181.4,92.5,181.4,92.6,181.5,92.5c-0.1,0.1-0.1,0.1-0.1,0.1
		c0,0,0,0.1,0,0.1c0,0,0,0,0.1,0c0,0,0.1,0,0.1,0c0,0,0,0,0-0.1S181.6,92.6,181.5,92.5L181.5,92.5C181.5,92.6,181.5,92.5,181.5,92.5
		"/>
	<path clip-path="url(#SVGID_2_)" fill="#800000018000000180000001" d="M185.4,94.1c-0.3-0.3-0.6-0.4-1.1-0.4
		c-0.3,0-0.5,0.1-0.8,0.2c-0.2,0.1-0.4,0.3-0.5,0.5v-0.7h-0.3v3.4h0.3v-1.9c0-0.2,0.1-0.5,0.2-0.7c0.1-0.2,0.3-0.4,0.5-0.5
		c0.2-0.1,0.4-0.2,0.7-0.2c0.4,0,0.7,0.1,0.9,0.3c0.2,0.2,0.3,0.5,0.3,0.9v1.9h0.3v-2C185.8,94.7,185.7,94.3,185.4,94.1"/>
	<path clip-path="url(#SVGID_2_)" fill="#800000018000000180000001" d="M186,97.3h-0.6v-2.1c0-0.4-0.1-0.6-0.3-0.8
		c-0.2-0.2-0.4-0.3-0.8-0.3c-0.2,0-0.4,0.1-0.6,0.1c-0.2,0.1-0.3,0.2-0.4,0.4c-0.1,0.2-0.1,0.4-0.1,0.6v2h-0.6v-3.7h0.6V94
		c0.1-0.1,0.2-0.2,0.3-0.2c0.3-0.1,0.6-0.2,0.9-0.2c0.5,0,0.9,0.1,1.2,0.4c0.3,0.3,0.4,0.7,0.4,1.2V97.3z M185.7,97L185.7,97l0-1.8
		c0-0.4-0.1-0.8-0.3-1l0,0c0,0-0.1-0.1-0.1-0.1c0,0,0.1,0.1,0.1,0.1c0.2,0.2,0.3,0.6,0.3,1V97z M182.9,94.9v0.3c0-0.1,0-0.3,0.1-0.4
		L182.9,94.9z"/>
	<path clip-path="url(#SVGID_2_)" fill="#800000018000000180000001" d="M189.6,93.7v1.9c0,0.2-0.1,0.5-0.2,0.7
		c-0.1,0.2-0.3,0.3-0.5,0.5c-0.2,0.1-0.4,0.2-0.7,0.2c-0.4,0-0.6-0.1-0.8-0.3c-0.2-0.2-0.3-0.5-0.3-0.9v-2h-0.3v2
		c0,0.5,0.1,0.8,0.4,1.1c0.3,0.3,0.6,0.4,1,0.4c0.3,0,0.5-0.1,0.8-0.2c0.2-0.1,0.4-0.3,0.5-0.5v0.7h0.3v-3.4H189.6z"/>
	<path clip-path="url(#SVGID_2_)" fill="#800000018000000180000001" d="M188.3,97.3c-0.5,0-0.9-0.1-1.1-0.4
		c-0.3-0.3-0.4-0.7-0.4-1.2v-2.1h0.6v2.1c0,0.3,0.1,0.6,0.3,0.8c0.2,0.2,0.4,0.3,0.7,0.3c0.2,0,0.4,0,0.6-0.2
		c0.2-0.1,0.3-0.2,0.4-0.4c0.1-0.2,0.1-0.4,0.1-0.6v-2h0.6v3.7h-0.6v-0.4c-0.1,0.1-0.2,0.2-0.3,0.2
		C188.9,97.2,188.6,97.3,188.3,97.3 M187,96c0,0.3,0.1,0.5,0.3,0.7c0.1,0.1,0.1,0.1,0.2,0.1c-0.1,0-0.1-0.1-0.2-0.1
		C187.2,96.5,187.1,96.3,187,96 M189.7,95.7c0,0.1,0,0.2-0.1,0.4l0.1-0.1V95.7z"/>
	<path clip-path="url(#SVGID_2_)" fill="#800000018000000180000001" d="M192.9,96.8c-0.1,0-0.2,0.1-0.3,0.1c-0.1,0-0.2,0-0.3,0
		c-0.3,0-0.4-0.1-0.5-0.2c-0.1-0.1-0.1-0.3-0.1-0.6V94h1.2v-0.3h-1.2v-1l-0.3,0v1h-0.7V94h0.7v2.1c0,0.4,0.1,0.6,0.2,0.8
		c0.1,0.2,0.4,0.3,0.7,0.3c0.2,0,0.4-0.1,0.7-0.2L192.9,96.8z"/>
	<path clip-path="url(#SVGID_2_)" fill="#800000018000000180000001" d="M192.4,97.3c-0.4,0-0.7-0.1-0.8-0.3
		c-0.2-0.2-0.2-0.5-0.2-0.9v-2h-0.7v-0.6h0.7v-1l0.6,0v1h1.2v0.6h-1.2v2c0,0.3,0.1,0.5,0.1,0.5c0.1,0.1,0.2,0.1,0.4,0.1
		c0.1,0,0.1,0,0.2,0c0.1,0,0.2-0.1,0.3-0.1l0.1-0.1l0.2,0.5l-0.1,0.1C192.8,97.3,192.6,97.3,192.4,97.3 M191.6,96.5
		c0,0.1,0.1,0.2,0.1,0.3c0,0,0,0,0.1,0.1c0,0-0.1-0.1-0.1-0.1C191.7,96.7,191.6,96.6,191.6,96.5"/>
	<path clip-path="url(#SVGID_2_)" fill="#800000018000000180000001" d="M196.9,95.3c0-0.3-0.1-0.6-0.2-0.9c-0.1-0.3-0.3-0.5-0.6-0.6
		c-0.3-0.1-0.6-0.2-0.9-0.2c-0.3,0-0.6,0.1-0.9,0.2c-0.3,0.2-0.5,0.4-0.6,0.6c-0.1,0.3-0.2,0.6-0.2,0.9c0,0.3,0.1,0.6,0.2,0.9
		c0.2,0.3,0.4,0.5,0.6,0.6c0.3,0.2,0.6,0.2,0.9,0.2c0.3,0,0.6-0.1,0.8-0.2c0.3-0.1,0.5-0.3,0.6-0.5l-0.2-0.2
		c-0.1,0.2-0.3,0.3-0.5,0.4c-0.2,0.1-0.5,0.2-0.7,0.2c-0.4,0-0.7-0.1-1-0.4c-0.3-0.3-0.4-0.6-0.4-1h3.1
		C196.9,95.5,196.9,95.4,196.9,95.3 M193.7,95.3c0-0.4,0.2-0.7,0.4-1c0.3-0.2,0.6-0.4,1-0.4c0.3,0,0.5,0.1,0.7,0.2
		c0.2,0.1,0.4,0.3,0.5,0.5c0.1,0.2,0.2,0.4,0.2,0.7H193.7z"/>
	<path clip-path="url(#SVGID_2_)" fill="#800000018000000180000001" d="M195.2,97.3c-0.4,0-0.7-0.1-1-0.3c-0.3-0.2-0.5-0.4-0.7-0.7
		c-0.2-0.3-0.2-0.6-0.2-1c0-0.4,0.1-0.7,0.2-1c0.2-0.3,0.4-0.5,0.7-0.7c0.3-0.2,0.6-0.2,1-0.2c0.4,0,0.7,0.1,1,0.2
		c0.3,0.1,0.5,0.4,0.7,0.6c0.2,0.3,0.2,0.6,0.2,0.9c0,0.1,0,0.2,0,0.2l0,0.1h-3.1c0,0.3,0.2,0.6,0.4,0.8c0.2,0.2,0.5,0.3,0.9,0.3
		c0.2,0,0.5,0,0.7-0.1c0.2-0.1,0.4-0.2,0.5-0.4l0.1-0.1l0.4,0.4l-0.1,0.1c-0.2,0.2-0.4,0.4-0.7,0.5
		C195.8,97.3,195.5,97.3,195.2,97.3 M193.9,95.1h2.5c0-0.2-0.1-0.3-0.2-0.5c-0.1-0.2-0.2-0.3-0.4-0.4c-0.2-0.1-0.4-0.1-0.7-0.1
		c-0.4,0-0.6,0.1-0.9,0.3C194.1,94.6,194,94.8,193.9,95.1"/>
	<rect x="160.6" y="92.9" clip-path="url(#SVGID_2_)" fill="#800000018000000180000001" width="0.6" height="4.4"/>
</g>
</svg>
