<?xml version="1.0" encoding="utf-8"?>
<svg xmlns="http://www.w3.org/2000/svg" width="16" height="16" viewBox="0 0 16 16" fill="none">
<path d="M8.92851 14V13.0714C8.92851 12.5789 8.73284 12.1065 8.38456 11.7582C8.03628 11.4099 7.56391 11.2143 7.07136 11.2143H3.35708C2.86453 11.2143 2.39216 11.4099 2.04388 11.7582C1.6956 12.1065 1.49994 12.5789 1.49994 13.0714V14" stroke="#444444" stroke-width="0.928571" stroke-linecap="round" stroke-linejoin="round"/>
<path d="M4.99993 9.71432C6.0256 9.71432 6.85707 8.88285 6.85707 7.85718C6.85707 6.83151 6.0256 6.00003 4.99993 6.00003C3.97426 6.00003 3.14279 6.83151 3.14279 7.85718C3.14279 8.88285 3.97426 9.71432 4.99993 9.71432Z" stroke="#444444" stroke-width="0.928571" stroke-linecap="round" stroke-linejoin="round"/>
<path d="M9.00014 9.49998V5.32141M9.00014 5.32141L9.00014 1.28212C9.00014 1.21586 9.06755 1.17092 9.12871 1.19641L14.3427 3.36888C14.4219 3.4019 14.4177 3.51554 14.3363 3.54269L9.00014 5.32141Z" stroke="#444444" stroke-width="0.928571" stroke-linecap="round"/>
</svg>