<?xml version="1.0" encoding="utf-8"?>
<svg xmlns="http://www.w3.org/2000/svg" width="16" height="16" viewBox="0 0 16 16" fill="none">
<path d="M11.5 1.5L5.5 3L4.5 2.5M9 2L7 1M8.99893 1.99993L8.99969 3.5" stroke="#444444" stroke-linecap="round"/>
<path d="M3.69812 6.78423C3.87553 6.03171 4.54717 5.5 5.32032 5.5H10.6803C11.454 5.5 12.1259 6.03244 12.3028 6.78564L12.6662 8.33333H3.33291L3.69812 6.78423Z" stroke="#444444"/>
<path d="M4.5 8.83337H11.5V7.83337H4.5V8.83337ZM13.5 10.8334V12.8334H14.5V10.8334H13.5ZM13.8333 12.5H2.16667V13.5H13.8333V12.5ZM2.5 12.8334V10.8334H1.5V12.8334H2.5ZM2.16667 12.5C2.35076 12.5 2.5 12.6493 2.5 12.8334H1.5C1.5 13.2016 1.79848 13.5 2.16667 13.5V12.5ZM13.5 12.8334C13.5 12.6493 13.6492 12.5 13.8333 12.5V13.5C14.2015 13.5 14.5 13.2016 14.5 12.8334H13.5ZM11.5 8.83337C12.6046 8.83337 13.5 9.7288 13.5 10.8334H14.5C14.5 9.17652 13.1569 7.83337 11.5 7.83337V8.83337ZM4.5 7.83337C2.84315 7.83337 1.5 9.17652 1.5 10.8334H2.5C2.5 9.7288 3.39543 8.83337 4.5 8.83337V7.83337Z" fill="#444444"/>
<path d="M4.83203 10.6667C4.83203 10.9429 4.60817 11.1667 4.33203 11.1667C4.05589 11.1667 3.83203 10.9429 3.83203 10.6667C3.83203 10.3906 4.05589 10.1667 4.33203 10.1667C4.60817 10.1667 4.83203 10.3906 4.83203 10.6667Z" stroke="#444444"/>
<circle cx="11.6661" cy="10.6667" r="0.5" stroke="#444444"/>
<path d="M5.99928 5.08339C5.99928 4.76123 6.26044 4.50006 6.58261 4.50006H9.41594C9.73811 4.50006 9.99928 4.76123 9.99928 5.08339V5.50006H5.99928V5.08339Z" fill="#444444"/>
<path d="M6.00093 11.6666L10.0009 11.6666" stroke="#444444" stroke-linecap="round"/>
<path d="M10.6661 13.0001H12.6661V14.0001C12.6661 14.5524 12.2184 15.0001 11.6661 15.0001V15.0001C11.1138 15.0001 10.6661 14.5524 10.6661 14.0001V13.0001Z" stroke="#444444"/>
<path d="M3.33291 13.0001H5.33291V14.0001C5.33291 14.5524 4.8852 15.0001 4.33291 15.0001V15.0001C3.78063 15.0001 3.33291 14.5524 3.33291 14.0001V13.0001Z" stroke="#444444"/>
</svg>