<?xml version="1.0" encoding="utf-8"?>
<svg xmlns="http://www.w3.org/2000/svg" width="16" height="16" viewBox="0 0 16 16" fill="none">
<path d="M1.5 14H14.5" stroke="#444444" stroke-linecap="round"/>
<path d="M8.5 7.26793L8.29346 6.81258L8 6.94569V7.26793H8.5ZM13.5 14V14.5H14V14H13.5ZM8.5 14H8V14.5H8.5V14ZM8.70654 7.72327L13 5.77582L12.5869 4.86513L8.29346 6.81258L8.70654 7.72327ZM13 5.77582V14H14V5.77582H13ZM13.5 13.5H8.5V14.5H13.5V13.5ZM9 14V7.26793H8V14H9ZM8.70654 11.8055L13.7065 9.53761L13.2935 8.62692L8.29346 10.8948L8.70654 11.8055ZM13 5.77582V5.77582H14C14 5.04888 13.2489 4.56484 12.5869 4.86513L13 5.77582Z" fill="#444444"/>
<path d="M8.5 14V14.5H9V14H8.5ZM2.5 14H2V14.5H2.5V14ZM3 2.5H8V1.5H3V2.5ZM8 2.5V14H9V2.5H8ZM8.5 13.5H2.5V14.5H8.5V13.5ZM3 14V2.5H2V14H3ZM8 2.5H9C9 1.94772 8.55229 1.5 8 1.5V2.5ZM3 1.5C2.44771 1.5 2 1.94772 2 2.5H3V2.5V1.5Z" fill="#444444"/>
<path d="M5 9.5C5 9.22386 5.22386 9 5.5 9C5.77614 9 6 9.22386 6 9.5V10.5C6 10.7761 5.77614 11 5.5 11C5.22386 11 5 10.7761 5 10.5V9.5Z" fill="#444444"/>
<path d="M5 6C5 5.72386 5.22386 5.5 5.5 5.5C5.77614 5.5 6 5.72386 6 6V7C6 7.27614 5.77614 7.5 5.5 7.5C5.22386 7.5 5 7.27614 5 7V6Z" fill="#444444"/>
<path d="M4.5 12.2C4.5 12.0895 4.58954 12 4.7 12H6.3C6.41046 12 6.5 12.0895 6.5 12.2V13.8C6.5 13.9105 6.41046 14 6.3 14H4.7C4.58954 14 4.5 13.9105 4.5 13.8V12.2Z" fill="#444444"/>
<path d="M10.5 6V3" stroke="#444444" stroke-linecap="round"/>
</svg>