<?xml version="1.0" encoding="utf-8"?>
<svg xmlns="http://www.w3.org/2000/svg" width="16" height="16" viewBox="0 0 16 16" fill="none">
<path d="M1 11.2308L1.39368 11.5457C1.94622 11.9878 2.74305 11.9675 3.28029 11.507V11.507C3.82253 11.0422 4.63084 11.0352 5.17308 11.5V11.5C5.71532 11.9648 6.51545 11.9648 7.05769 11.5V11.5C7.59993 11.0352 8.40007 11.0352 8.94231 11.5V11.5C9.48455 11.9648 10.2847 11.9648 10.8269 11.5V11.5C11.3692 11.0352 12.1775 11.0422 12.7197 11.507V11.507C13.257 11.9675 14.0538 11.9878 14.6063 11.5457L15 11.2308" stroke="#444444" stroke-width="1.07692" stroke-linecap="round"/>
<path d="M1 13.5385L1.39368 13.8534C1.94622 14.2954 2.74305 14.2752 3.28029 13.8147V13.8147C3.82253 13.3499 4.63084 13.3429 5.17308 13.8077V13.8077C5.71532 14.2725 6.51545 14.2725 7.05769 13.8077V13.8077C7.59993 13.3429 8.40007 13.3429 8.94231 13.8077V13.8077C9.48455 14.2725 10.2847 14.2725 10.8269 13.8077V13.8077C11.3692 13.3429 12.1775 13.3499 12.7197 13.8147V13.8147C13.257 14.2752 14.0538 14.2954 14.6063 13.8534L15 13.5385" stroke="#444444" stroke-width="1.07692" stroke-linecap="round"/>
<path d="M11.5 4C11.5 4.82843 10.8284 5.5 10 5.5C9.17157 5.5 8.5 4.82843 8.5 4C8.5 3.17157 9.17157 2.5 10 2.5C10.8284 2.5 11.5 3.17157 11.5 4Z" stroke="#444444"/>
<path d="M7 9V8C7 7.73478 7.15804 7.48043 7.43934 7.29289C7.72064 7.10536 8.10218 7 8.5 7H11.5C11.8978 7 12.2794 7.10536 12.5607 7.29289C12.842 7.48043 13 7.73478 13 8V9" stroke="#444444" stroke-width="0.928571" stroke-linecap="round" stroke-linejoin="round"/>
<path d="M2 8V5.5M4 9V6.5" stroke="#444444" stroke-linecap="round" stroke-linejoin="round"/>
</svg>