<?xml version="1.0" encoding="utf-8"?>
<svg xmlns="http://www.w3.org/2000/svg" width="16" height="16" viewBox="0 0 16 16" fill="none">
<path d="M13 5.375C13 8.09328 10.2222 11.5 8 11.5C5.77778 11.5 3 8.09328 3 5.375C3 2.65672 4.66667 1 8 1C11.3333 1 13 2.65672 13 5.375Z" stroke="#444444"/>
<path d="M6 13.4C6 13.1791 6.17909 13 6.4 13H9.6C9.82091 13 10 13.1791 10 13.4V14.6C10 14.8209 9.82091 15 9.6 15H6.4C6.17909 15 6 14.8209 6 14.6V13.4Z" stroke="#444444"/>
<path d="M10 13.5L10.5 10.5" stroke="#444444" stroke-linecap="round"/>
<path d="M6 13.5L5.5 10.5" stroke="#444444" stroke-linecap="round"/>
<path d="M7.61302 11.8166C7.78789 12.0303 8.1029 12.0618 8.31662 11.887C8.53034 11.7121 8.56184 11.3971 8.38698 11.1834L7.61302 11.8166ZM8.38698 11.1834L8.14665 10.8896L7.37269 11.5229L7.61302 11.8166L8.38698 11.1834ZM8.14665 10.8896C5.85257 8.08577 5.94814 4.02727 8.37165 1.33448L7.62835 0.665518C4.87456 3.72529 4.76597 8.33689 7.37269 11.5229L8.14665 10.8896Z" fill="#444444"/>
<path d="M8.38698 11.8166C8.21211 12.0303 7.8971 12.0618 7.68338 11.887C7.46966 11.7121 7.43816 11.3971 7.61302 11.1834L8.38698 11.8166ZM7.61302 11.1834L7.85335 10.8896L8.62731 11.5229L8.38698 11.8166L7.61302 11.1834ZM7.85335 10.8896C10.1474 8.08577 10.0519 4.02727 7.62835 1.33448L8.37165 0.665518C11.1254 3.72529 11.234 8.33689 8.62731 11.5229L7.85335 10.8896Z" fill="#444444"/>
</svg>